<svg xmlns="http://www.w3.org/2000/svg" xmlns:xlink="http://www.w3.org/1999/xlink" width="200" height="116.58" viewBox="0 0 200 116.58">
  <defs>
    <clipPath id="clip-path">
      <rect width="200" height="116.58" fill="none"/>
    </clipPath>
  </defs>
  <g id="Repeat_Grid_1" data-name="Repeat Grid 1" clip-path="url(#clip-path)">
    <g transform="translate(-105 -38.546)">
      <g id="Logo" transform="translate(106 38.546)">
        <g id="Path_1" data-name="Path 1" transform="translate(131.79 7.859) rotate(25)" fill="#5ef686">
          <path d="M 11.28718090057373 92.39827728271484 C 9.071844100952148 92.39827728271484 7.107893943786621 92.07794189453125 5.449893951416016 91.44615173339844 C 3.845218896865845 90.83468627929688 2.60098123550415 89.95986175537109 1.751743793487549 88.84600067138672 C 0.4989937841892242 87.20287322998047 0.1809437870979309 85.08119201660156 0.8319687843322754 82.71030426025391 L 18.63273048400879 17.88417625427246 C 19.11624336242676 16.12335205078125 20.09466934204102 14.31350135803223 21.54083061218262 12.50490093231201 C 22.95150566101074 10.74066352844238 24.74238204956055 9.05613899230957 26.86368179321289 7.498126029968262 C 31.23988151550293 4.283988475799561 36.51808166503906 1.974751114845276 41.72599411010742 0.9958136677742004 C 43.47624206542969 0.6668136119842529 45.16584396362305 0.5000011324882507 46.74789428710938 0.5000011324882507 C 48.96323013305664 0.5000011324882507 50.92718124389648 0.8203386664390564 52.58518218994141 1.452126145362854 C 54.18986892700195 2.06360125541687 55.43410491943359 2.938413619995117 56.28334426879883 4.05228853225708 C 57.53609466552734 5.695401191711426 57.85415649414063 7.817101001739502 57.20313262939453 10.18798828125 L 39.40234375 75.01409912109375 C 38.91883087158203 76.77492523193359 37.9404182434082 78.58477783203125 36.49425506591797 80.39337921142578 C 35.08356857299805 82.15761566162109 33.29270553588867 83.84214019775391 31.17140579223633 85.40015411376953 C 26.79520606994629 88.61428833007813 21.51700592041016 90.92352294921875 16.3090934753418 91.9024658203125 C 14.5588436126709 92.23146057128906 12.86923122406006 92.39827728271484 11.28718090057373 92.39827728271484 Z" stroke="none"/>
          <path d="M 46.74791717529297 0.9999923706054688 C 45.19678497314453 0.9999923706054688 43.53823852539063 1.163909912109375 41.818359375 1.487205505371094 C 36.68258285522461 2.45257568359375 31.4766902923584 4.730415344238281 27.1596508026123 7.901115417480469 C 25.07369232177734 9.43316650390625 23.31463623046875 11.08716583251953 21.93133163452148 12.81715393066406 C 20.52787780761719 14.57234954833984 19.58029174804688 16.32168579101563 19.11489105224609 18.01656341552734 L 1.314117431640625 82.84268188476563 C 0.7059707641601563 85.05741882324219 0.9947853088378906 87.02849578857422 2.149356842041016 88.5428466796875 C 2.941265106201172 89.58151245117188 4.111625671386719 90.401123046875 5.6279296875 90.97891235351563 C 7.228862762451172 91.58895111083984 9.132915496826172 91.89826965332031 11.28719711303711 91.89826965332031 C 12.83835601806641 91.89826965332031 14.49689102172852 91.73435211181641 16.21673202514648 91.41107177734375 C 21.35250473022461 90.44570159912109 26.55839729309082 88.16786193847656 30.87543678283691 84.99716186523438 C 32.96139526367188 83.46511077880859 34.72045135498047 81.81111145019531 36.103759765625 80.08112335205078 C 37.50720977783203 78.325927734375 38.45479583740234 76.57659149169922 38.92019653320313 74.8817138671875 L 56.72097015380859 10.05559539794922 C 57.32911682128906 7.840843200683594 57.04030227661133 5.869766235351563 55.8857307434082 4.355415344238281 C 55.09382247924805 3.316749572753906 53.9234619140625 2.497138977050781 52.40715789794922 1.919349670410156 C 50.80622482299805 1.309310913085938 48.90218353271484 0.9999923706054688 46.74791717529297 0.9999923706054688 M 46.74790954589844 0 C 54.68671035766602 0 59.39596176147461 4.090469360351563 57.68527603149414 10.32038116455078 L 39.88450622558594 75.14649963378906 C 37.83238220214844 82.61983489990234 27.31866455078125 90.34173583984375 16.40146255493164 92.39385986328125 C 14.58503723144531 92.73529052734375 12.87170028686523 92.89827728271484 11.28719329833984 92.89827728271484 C 3.348388671875 92.89827728271484 -1.360874176025391 88.80779266357422 0.3498115539550781 82.57789611816406 L 18.15058517456055 17.75177764892578 C 20.20270538330078 10.2784423828125 30.71642303466797 2.556541442871094 41.63362121582031 0.5044174194335938 C 43.45004653930664 0.1629791259765625 45.16340637207031 0 46.74790954589844 0 Z" stroke="none" fill="#707070"/>
        </g>
        <g id="Path_2" data-name="Path 2" transform="translate(122.601 9.083) rotate(24)" fill="rgba(51,189,216,0.58)">
          <path d="M -0.04940970614552498 75.92533111572266 C -2.180454254150391 75.92533111572266 -3.985754251480103 75.67935180664063 -5.415165424346924 75.19423675537109 C -6.78400993347168 74.72968292236328 -7.746754169464111 74.06706237792969 -8.276676177978516 73.22476196289063 C -8.953865051269531 72.14836883544922 -8.905765533447266 70.78731536865234 -8.133687019348145 69.17941284179688 L 18.9942455291748 12.6829719543457 C 19.72290229797363 11.16548252105713 21.03937911987305 9.545083045959473 22.90712356567383 7.866771697998047 C 24.73348999023438 6.225649356842041 27.00019073486328 4.606127262115479 29.64425659179688 3.053216218948364 C 35.09872436523438 -0.1503060013055801 41.53250122070313 -2.704883813858032 47.76041412353516 -4.139950275421143 C 51.17054748535156 -4.925728321075439 54.27965545654297 -5.324150562286377 57.00138854980469 -5.324150562286377 C 59.1324348449707 -5.324150562286377 60.93773651123047 -5.078183650970459 62.36714553833008 -4.593072891235352 C 63.73598861694336 -4.128517150878906 64.69873809814453 -3.465883731842041 65.22866058349609 -2.623594999313354 C 65.90585327148438 -1.547194838523865 65.85774230957031 -0.1861393302679062 65.08567810058594 1.421760678291321 L 37.95773315429688 57.91819381713867 C 37.22908020019531 59.43568420410156 35.91260147094727 61.05609512329102 34.04485702514648 62.73440551757813 C 32.21849060058594 64.37552642822266 29.95178985595703 65.99504089355469 27.30772399902344 67.54795837402344 C 21.85324668884277 70.75147247314453 15.41947937011719 73.30605316162109 9.19157886505127 74.74111938476563 C 5.781445980072021 75.52690887451172 2.672323703765869 75.92533111572266 -0.04940970614552498 75.92533111572266 Z" stroke="none"/>
          <path d="M 57.00137710571289 -4.82415771484375 C 54.31736755371094 -4.82415771484375 51.24603652954102 -4.430030822753906 47.87268447875977 -3.652732849121094 C 41.69298934936523 -2.228767395019531 35.30927276611328 0.3059005737304688 29.8974723815918 3.484344482421875 C 27.28224945068359 5.02032470703125 25.04278945922852 6.619911193847656 23.24130630493164 8.238677978515625 C 21.42245101928711 9.873065948486328 20.14517974853516 11.44114685058594 19.44496536254883 12.89939498901367 L -7.682975769042969 69.39584350585938 C -8.375724792480469 70.83856201171875 -8.433082580566406 72.03721618652344 -7.853469848632813 72.95850372314453 C -6.867176055908203 74.52620697021484 -4.022705078125 75.42532348632813 -0.0494232177734375 75.42532348632813 C 2.634567260742188 75.42532348632813 5.705921173095703 75.03119659423828 9.079296112060547 74.25389099121094 C 15.25897979736328 72.82992553710938 21.64269638061523 70.29526519775391 27.05449676513672 67.11680603027344 C 29.66973114013672 65.58084106445313 31.9091911315918 63.98125457763672 33.71066284179688 62.36248779296875 C 35.52953338623047 60.72809982299805 36.80680084228516 59.16001892089844 37.50701141357422 57.7017707824707 L 64.63495635986328 1.205337524414063 C 65.32770538330078 -0.2373809814453125 65.38506317138672 -1.436042785644531 64.80545043945313 -2.357337951660156 C 63.81914520263672 -3.925041198730469 60.97467422485352 -4.82415771484375 57.00137710571289 -4.82415771484375 M 57.00138092041016 -5.824165344238281 C 64.15686798095703 -5.824165344238281 67.79228210449219 -3.05987548828125 65.53641510009766 1.638191223144531 L 38.40847015380859 58.13462829589844 C 35.3111572265625 64.58506774902344 22.28056716918945 72.23818206787109 9.303836822509766 75.22834777832031 C 5.778480529785156 76.04067993164063 2.619571685791016 76.42532348632813 -0.04941940307617188 76.42532348632813 C -7.204910278320313 76.42532348632813 -10.84030151367188 73.66104125976563 -8.584434509277344 68.96298217773438 L 18.54350662231445 12.46653747558594 C 21.64082717895508 6.016098022460938 34.67140197753906 -1.637016296386719 47.64814376831055 -4.627197265625 C 51.17350006103516 -5.439521789550781 54.3323860168457 -5.824165344238281 57.00138092041016 -5.824165344238281 Z" stroke="none" fill="#707070"/>
        </g>
        <text id="SolomonCodes" transform="translate(0 90.454)" fill="#150101" stroke="#010101" stroke-width="1" font-size="30" font-family="Consolas"><tspan x="0" y="0">SolomonCodes</tspan></text>
      </g>
    </g>
  </g>
</svg>
